<svg version="1" xmlns="http://www.w3.org/2000/svg" width="682.667" height="682.667" viewBox="0 0 512.000000 512.000000"><path d="M74 55.7c-2.9 1.1-6.6 3.8-10.6 7.7-10.9 11-9.9-9.3-9.9 193.6 0 171.6.1 176.6 1.9 181.5 2.4 6.2 9.5 13.9 16.1 17.3l5 2.7h359l5-2.7c6.5-3.4 12.8-10 15.7-16.3l2.3-5 .3-174c.3-180.9.3-181.5-3.8-189.6-3-5.7-10.7-12.6-16.7-14.9-5.3-2-7.2-2-182.6-1.9-159 0-177.7.2-181.7 1.6zm138.2 125.8l4.8 5-35.3 34.7-35.2 34.7 35.3 34.8 35.3 34.8-10.8 10.7-10.8 10.8-45.5-45.5-45.5-45.5 45.5-45.5 45.4-45.4 6 5.7c3.4 3.1 8.2 7.9 10.8 10.7zm149.8 120L316.5 347l-10.2-10.2c-5.7-5.7-10.3-10.6-10.3-11.1 0-.4 15.6-16.3 34.8-35.2l34.7-34.5-34.7-34.5c-19.2-19-34.8-34.9-34.8-35.3 0-.4 4.6-5.3 10.2-10.9l10.3-10.3 45.5 45.5 45.5 45.5-45.5 45.5z"/></svg>